HIERARCHY
ROOT root
{
	OFFSET 0.000000 0.000000 0.000000
	CHANNELS 6 Xposition Yposition Zposition Zrotation Yrotation Xrotation
	JOINT lhip
	{
		OFFSET 0.058581 -0.082280 -0.017664
		CHANNELS 3 Zrotation Yrotation Xrotation
		JOINT lknee
		{
			OFFSET 0.043451 -0.386469 0.008037
			CHANNELS 3 Zrotation Yrotation Xrotation
			JOINT lankle
			{
				OFFSET -0.014790 -0.426874 -0.037428
				CHANNELS 3 Zrotation Yrotation Xrotation
				JOINT ltoe
				{
					OFFSET 0.041054 -0.060286 0.122042
					CHANNELS 3 Zrotation Yrotation Xrotation
					End Site
					{
						OFFSET 0.000000 0.000000 0.000000
					}
				}
			}
		}
	}
	JOINT rhip
	{
		OFFSET -0.060310 -0.090513 -0.013543
		CHANNELS 3 Zrotation Yrotation Xrotation
		JOINT rknee
		{
			OFFSET -0.043257 -0.383688 -0.004843
			CHANNELS 3 Zrotation Yrotation Xrotation
			JOINT rankle
			{
				OFFSET 0.019056 -0.420046 -0.034562
				CHANNELS 3 Zrotation Yrotation Xrotation
				JOINT rtoe
				{
					OFFSET -0.034840 -0.062106 0.130323
					CHANNELS 3 Zrotation Yrotation Xrotation
					End Site
					{
						OFFSET 0.000000 0.000000 0.000000
					}
				}
			}
		}
	}
	JOINT lowerback
	{
		OFFSET 0.004439 0.124404 -0.038385
		CHANNELS 3 Zrotation Yrotation Xrotation
		JOINT upperback
		{
			OFFSET 0.004488 0.137956 0.026820
			CHANNELS 3 Zrotation Yrotation Xrotation
			JOINT chest
			{
				OFFSET -0.002265 0.056032 0.002855
				CHANNELS 3 Zrotation Yrotation Xrotation
				JOINT lowerneck
				{
					OFFSET -0.013390 0.211636 -0.033468
					CHANNELS 3 Zrotation Yrotation Xrotation
					JOINT upperneck
					{
						OFFSET 0.010113 0.088937 0.050410
						CHANNELS 3 Zrotation Yrotation Xrotation
						End Site
						{
							OFFSET 0.000000 0.000000 0.000000
						}
					}
				}
				JOINT lclavicle
				{
					OFFSET 0.071702 0.114000 -0.018898
					CHANNELS 3 Zrotation Yrotation Xrotation
					JOINT lshoulder
					{
						OFFSET 0.122921 0.045205 -0.019046
						CHANNELS 3 Zrotation Yrotation Xrotation
						JOINT lelbow
						{
							OFFSET 0.255332 -0.015649 -0.022946
							CHANNELS 3 Zrotation Yrotation Xrotation
							JOINT lwrist
							{
								OFFSET 0.265709 0.012698 -0.007375
								CHANNELS 3 Zrotation Yrotation Xrotation
								End Site
								{
									OFFSET 0.000000 0.000000 0.000000
								}
							}
						}
					}
				}
				JOINT rclavicle
				{
					OFFSET -0.082954 0.112472 -0.023707
					CHANNELS 3 Zrotation Yrotation Xrotation
					JOINT rshoulder
					{
						OFFSET -0.113228 0.046853 -0.008472
						CHANNELS 3 Zrotation Yrotation Xrotation
						JOINT relbow
						{
							OFFSET -0.260127 -0.014369 -0.031269
							CHANNELS 3 Zrotation Yrotation Xrotation
							JOINT rwrist
							{
								OFFSET -0.269108 0.006794 -0.006027
								CHANNELS 3 Zrotation Yrotation Xrotation
								End Site
								{
									OFFSET 0.000000 0.000000 0.000000
								}
							}
						}
					}
				}
			}
		}
	}
}
MOTION
Frames: 8
Frame Time: 0.033333
0.524098 0.219944 1.004563 70.414094 3.401488 99.706137 4.221036 8.854037 -4.601894 4.503159 2.896599 -8.685097 -0.267390 18.569015 -0.461278 0.000000 -0.000000 0.000000 -0.315706 6.829683 -17.804703 -1.214377 12.386216 3.487351 3.481854 -6.154247 -0.187609 0.000000 -0.000000 0.000000 0.158397 -8.461486 13.254578 6.779358 -14.696382 -3.912693 4.730368 -8.019923 -7.486015 -9.152974 12.092378 -10.764173 3.854461 23.387812 -5.509753 -13.262189 -45.557702 4.599620 -29.363661 -29.375383 2.529862 9.656359 2.564097 -21.455587 2.005760 7.944798 -28.240060 5.941860 36.913588 -9.563349 56.724516 38.951445 29.647630 16.216294 38.674172 18.822445 7.315943 -8.414423 -48.234952 
0.525206 0.219065 1.004428 70.210701 3.419701 99.885491 4.194279 8.924044 -4.664079 4.562887 2.967683 -8.756787 -0.259564 18.631247 -0.384559 0.000000 -0.000000 0.000000 -0.282072 6.899409 -17.967178 -1.212577 12.488686 3.476852 3.460550 -6.130105 -0.113548 0.000000 -0.000000 0.000000 0.189257 -8.526038 13.423657 6.789353 -14.736608 -3.988531 4.724119 -8.107156 -7.423962 -9.191148 12.245839 -10.983650 3.666046 23.502684 -5.808520 -13.262736 -45.643112 4.655145 -29.041544 -29.074687 2.165681 9.728226 2.752056 -21.817023 2.182784 8.064366 -28.406607 5.941406 37.197591 -9.560676 57.246082 39.358861 29.962168 15.804806 38.284006 18.340817 6.822677 -8.526343 -48.273603 
0.525216 0.219049 1.004427 70.198420 3.421489 99.892343 4.193289 8.927812 -4.667216 4.565052 2.971793 -8.760525 -0.257944 18.634433 -0.381109 0.000000 -0.000000 0.000000 -0.280346 6.903220 -17.976276 -1.211936 12.493757 3.476882 3.459024 -6.128277 -0.109794 0.000000 -0.000000 0.000000 0.192041 -8.528801 13.430725 6.789440 -14.739234 -3.988605 4.724201 -8.110807 -7.424724 -9.194378 12.257151 -10.991863 3.656994 23.508299 -5.827145 -13.263414 -45.650601 4.661956 -29.021710 -29.056712 2.141011 9.733405 2.762618 -21.837661 2.182198 8.068560 -28.415795 5.941582 37.216157 -9.557135 57.271550 39.381898 29.974816 15.777453 38.257514 18.315900 6.813963 -8.533215 -48.277037 
0.525630 0.217146 1.005837 68.147659 3.539286 101.015671 3.912171 8.599877 -5.008159 4.720104 5.364751 -9.497160 0.599648 18.268938 0.280674 0.000000 -0.000000 0.000000 -0.459738 7.719404 -19.618735 -1.073462 11.414790 3.722065 3.669533 -3.874519 0.629505 0.000000 -0.000000 0.000000 0.403975 -8.777195 14.124565 6.993011 -15.108568 -2.275448 4.673865 -9.009297 -8.714474 -8.846153 16.114243 -12.723654 1.027285 22.575875 -8.516437 -11.979244 -46.599319 3.989289 -27.344158 -26.041916 -0.345666 11.065644 5.065332 -26.480920 -1.410450 5.732032 -30.296329 5.834506 41.837542 -10.303428 61.069112 42.195334 32.806402 8.417201 32.653783 10.516326 15.338752 -3.759780 -41.319925 
0.526289 0.216349 1.005936 67.813475 3.627520 101.188948 3.911055 9.370319 -5.222033 4.787090 4.161504 -9.376968 0.301578 19.196643 0.077072 0.000000 -0.000000 0.000000 -0.148755 7.669963 -19.810611 -1.024162 12.970964 3.745962 3.216226 -5.260637 0.677582 0.000000 -0.000000 0.000000 0.349770 -8.809845 14.794003 7.021236 -15.043709 -2.854731 4.871390 -8.912357 -7.944109 -9.879824 14.786326 -13.174444 1.400190 23.825098 -9.567247 -13.053911 -47.278686 5.260762 -25.407936 -25.743074 -1.725560 10.354655 4.394167 -26.648314 2.298277 8.808572 -30.725904 6.091836 41.767404 -9.540244 61.135605 44.031911 32.877483 10.646260 32.242298 12.198574 6.229078 -8.504778 -47.632491 
0.526908 0.215814 1.005604 67.810363 3.621052 101.215116 3.909444 9.378286 -5.229518 4.789104 4.149701 -9.375472 0.295222 19.204758 0.076083 0.000000 -0.000000 0.000000 -0.145719 7.668569 -19.815984 -1.024186 12.984897 3.745619 3.208897 -5.271841 0.680924 0.000000 -0.000000 0.000000 0.352878 -8.809366 14.813815 7.017797 -15.050159 -2.815705 4.873312 -8.912869 -7.942757 -9.894593 14.784159 -13.183420 1.397934 23.837827 -9.592473 -13.065715 -47.304159 5.283025 -25.365664 -25.739889 -1.775306 10.346199 4.389151 -26.660450 2.310446 8.817370 -30.719446 6.091580 41.787263 -9.528402 61.128319 44.084042 32.850787 10.659764 32.214699 12.184712 6.154106 -8.539643 -47.649795 
0.526934 0.215796 1.005595 67.809253 3.620625 101.221208 3.907753 9.381656 -5.235389 4.789483 4.145555 -9.376168 0.292275 19.206849 0.076652 0.000000 -0.000000 0.000000 -0.145621 7.668431 -19.821751 -1.024735 12.988668 3.745098 3.205425 -5.275883 0.683399 0.000000 -0.000000 0.000000 0.355779 -8.809735 14.819049 7.017772 -15.052694 -2.806180 4.875544 -8.913148 -7.945989 -9.901339 14.786303 -13.187549 1.394461 23.841782 -9.608434 -13.069806 -47.316989 5.292659 -25.343186 -25.734488 -1.800177 10.345575 4.388802 -26.670176 2.309102 8.812995 -30.723485 6.088343 41.800038 -9.525673 61.129856 44.109010 32.843662 10.652848 32.196295 12.172826 6.129301 -8.548260 -47.656549 
0.526935 0.215797 1.005596 67.809248 3.620511 101.222687 3.907297 9.382374 -5.236993 4.789474 4.144678 -9.376364 0.291529 19.207046 0.076841 0.000000 -0.000000 0.000000 -0.145745 7.668407 -19.823323 -1.024882 12.989193 3.745015 3.204666 -5.276739 0.684035 0.000000 -0.000000 0.000000 0.356563 -8.809976 14.820596 7.017912 -15.053162 -2.804699 4.876186 -8.913308 -7.946524 -9.902698 14.786715 -13.188385 1.393316 23.842158 -9.612600 -13.070576 -47.319928 5.294581 -25.338483 -25.733457 -1.805633 10.346171 4.388733 -26.672261 2.307857 8.811423 -30.723955 6.087331 41.803200 -9.525496 61.130544 44.114719 32.842329 10.650192 32.191802 12.169301 6.125780 -8.549443 -47.658071 
